<mxfile host="app.diagrams.net" agent="Mozilla/5.0 (Windows NT 10.0; Win64; x64; rv:130.0) Gecko/20100101 Firefox/130.0" version="24.7.15">
  <diagram name="Page-1" id="z7sd7clmtVCCE3P8Ll1m">
    <mxGraphModel dx="1434" dy="754" grid="1" gridSize="10" guides="1" tooltips="1" connect="1" arrows="1" fold="1" page="1" pageScale="1" pageWidth="850" pageHeight="1100" math="0" shadow="0">
      <root>
        <mxCell id="0" />
        <mxCell id="1" parent="0" />
        <mxCell id="CTjjQVVto7asPMovYLZc-11" style="edgeStyle=orthogonalEdgeStyle;rounded=0;orthogonalLoop=1;jettySize=auto;html=1;entryX=0;entryY=0.5;entryDx=0;entryDy=0;" edge="1" parent="1" source="CTjjQVVto7asPMovYLZc-1" target="CTjjQVVto7asPMovYLZc-7">
          <mxGeometry relative="1" as="geometry" />
        </mxCell>
        <mxCell id="CTjjQVVto7asPMovYLZc-13" style="edgeStyle=orthogonalEdgeStyle;rounded=0;orthogonalLoop=1;jettySize=auto;html=1;entryX=0;entryY=0.5;entryDx=0;entryDy=0;" edge="1" parent="1" source="CTjjQVVto7asPMovYLZc-1" target="CTjjQVVto7asPMovYLZc-6">
          <mxGeometry relative="1" as="geometry" />
        </mxCell>
        <mxCell id="CTjjQVVto7asPMovYLZc-23" style="edgeStyle=orthogonalEdgeStyle;rounded=0;orthogonalLoop=1;jettySize=auto;html=1;entryX=0;entryY=0.5;entryDx=0;entryDy=0;" edge="1" parent="1" source="CTjjQVVto7asPMovYLZc-1" target="CTjjQVVto7asPMovYLZc-9">
          <mxGeometry relative="1" as="geometry" />
        </mxCell>
        <mxCell id="CTjjQVVto7asPMovYLZc-24" style="edgeStyle=orthogonalEdgeStyle;rounded=0;orthogonalLoop=1;jettySize=auto;html=1;entryX=0;entryY=0.5;entryDx=0;entryDy=0;" edge="1" parent="1" source="CTjjQVVto7asPMovYLZc-1" target="CTjjQVVto7asPMovYLZc-10">
          <mxGeometry relative="1" as="geometry" />
        </mxCell>
        <mxCell id="CTjjQVVto7asPMovYLZc-1" value="Doctor" style="shape=umlActor;verticalLabelPosition=bottom;verticalAlign=top;html=1;outlineConnect=0;" vertex="1" parent="1">
          <mxGeometry x="10" y="280" width="30" height="60" as="geometry" />
        </mxCell>
        <mxCell id="CTjjQVVto7asPMovYLZc-5" style="edgeStyle=orthogonalEdgeStyle;rounded=0;orthogonalLoop=1;jettySize=auto;html=1;entryX=0;entryY=0.5;entryDx=0;entryDy=0;" edge="1" parent="1" source="CTjjQVVto7asPMovYLZc-2" target="CTjjQVVto7asPMovYLZc-4">
          <mxGeometry relative="1" as="geometry" />
        </mxCell>
        <mxCell id="CTjjQVVto7asPMovYLZc-19" style="edgeStyle=orthogonalEdgeStyle;rounded=0;orthogonalLoop=1;jettySize=auto;html=1;entryX=0;entryY=0.5;entryDx=0;entryDy=0;" edge="1" parent="1" source="CTjjQVVto7asPMovYLZc-2" target="CTjjQVVto7asPMovYLZc-8">
          <mxGeometry relative="1" as="geometry" />
        </mxCell>
        <mxCell id="CTjjQVVto7asPMovYLZc-20" style="edgeStyle=orthogonalEdgeStyle;rounded=0;orthogonalLoop=1;jettySize=auto;html=1;entryX=0;entryY=0.5;entryDx=0;entryDy=0;" edge="1" parent="1" source="CTjjQVVto7asPMovYLZc-2" target="CTjjQVVto7asPMovYLZc-9">
          <mxGeometry relative="1" as="geometry" />
        </mxCell>
        <mxCell id="CTjjQVVto7asPMovYLZc-22" style="edgeStyle=orthogonalEdgeStyle;rounded=0;orthogonalLoop=1;jettySize=auto;html=1;entryX=0;entryY=0.5;entryDx=0;entryDy=0;" edge="1" parent="1" source="CTjjQVVto7asPMovYLZc-2" target="CTjjQVVto7asPMovYLZc-10">
          <mxGeometry relative="1" as="geometry" />
        </mxCell>
        <mxCell id="CTjjQVVto7asPMovYLZc-2" value="Nurse" style="shape=umlActor;verticalLabelPosition=bottom;verticalAlign=top;html=1;outlineConnect=0;" vertex="1" parent="1">
          <mxGeometry x="60" y="560" width="30" height="60" as="geometry" />
        </mxCell>
        <mxCell id="CTjjQVVto7asPMovYLZc-14" style="edgeStyle=orthogonalEdgeStyle;rounded=0;orthogonalLoop=1;jettySize=auto;html=1;entryX=1;entryY=0.5;entryDx=0;entryDy=0;" edge="1" parent="1" source="CTjjQVVto7asPMovYLZc-3" target="CTjjQVVto7asPMovYLZc-10">
          <mxGeometry relative="1" as="geometry" />
        </mxCell>
        <mxCell id="CTjjQVVto7asPMovYLZc-15" style="edgeStyle=orthogonalEdgeStyle;rounded=0;orthogonalLoop=1;jettySize=auto;html=1;entryX=1;entryY=0.5;entryDx=0;entryDy=0;" edge="1" parent="1" source="CTjjQVVto7asPMovYLZc-3" target="CTjjQVVto7asPMovYLZc-9">
          <mxGeometry relative="1" as="geometry" />
        </mxCell>
        <mxCell id="CTjjQVVto7asPMovYLZc-16" style="edgeStyle=orthogonalEdgeStyle;rounded=0;orthogonalLoop=1;jettySize=auto;html=1;entryX=1;entryY=0.5;entryDx=0;entryDy=0;" edge="1" parent="1" source="CTjjQVVto7asPMovYLZc-3" target="CTjjQVVto7asPMovYLZc-8">
          <mxGeometry relative="1" as="geometry" />
        </mxCell>
        <mxCell id="CTjjQVVto7asPMovYLZc-17" style="edgeStyle=orthogonalEdgeStyle;rounded=0;orthogonalLoop=1;jettySize=auto;html=1;entryX=1;entryY=0.5;entryDx=0;entryDy=0;" edge="1" parent="1" source="CTjjQVVto7asPMovYLZc-3" target="CTjjQVVto7asPMovYLZc-6">
          <mxGeometry relative="1" as="geometry" />
        </mxCell>
        <mxCell id="CTjjQVVto7asPMovYLZc-18" style="edgeStyle=orthogonalEdgeStyle;rounded=0;orthogonalLoop=1;jettySize=auto;html=1;entryX=1;entryY=0.5;entryDx=0;entryDy=0;" edge="1" parent="1" source="CTjjQVVto7asPMovYLZc-3" target="CTjjQVVto7asPMovYLZc-4">
          <mxGeometry relative="1" as="geometry" />
        </mxCell>
        <mxCell id="CTjjQVVto7asPMovYLZc-3" value="Patient" style="shape=umlActor;verticalLabelPosition=bottom;verticalAlign=top;html=1;outlineConnect=0;" vertex="1" parent="1">
          <mxGeometry x="460" y="410" width="30" height="60" as="geometry" />
        </mxCell>
        <mxCell id="CTjjQVVto7asPMovYLZc-4" value="Virtual Triage" style="ellipse;whiteSpace=wrap;html=1;" vertex="1" parent="1">
          <mxGeometry x="150" y="570" width="110" height="40" as="geometry" />
        </mxCell>
        <mxCell id="CTjjQVVto7asPMovYLZc-6" value="Contact Doctor" style="ellipse;whiteSpace=wrap;html=1;" vertex="1" parent="1">
          <mxGeometry x="150" y="510" width="110" height="40" as="geometry" />
        </mxCell>
        <mxCell id="CTjjQVVto7asPMovYLZc-7" value="Prescribe Medication" style="ellipse;whiteSpace=wrap;html=1;" vertex="1" parent="1">
          <mxGeometry x="145" y="450" width="125" height="50" as="geometry" />
        </mxCell>
        <mxCell id="CTjjQVVto7asPMovYLZc-8" value="Look at ED Loads" style="ellipse;whiteSpace=wrap;html=1;" vertex="1" parent="1">
          <mxGeometry x="147.5" y="390" width="122.5" height="50" as="geometry" />
        </mxCell>
        <mxCell id="CTjjQVVto7asPMovYLZc-9" value="Register " style="ellipse;whiteSpace=wrap;html=1;" vertex="1" parent="1">
          <mxGeometry x="150" y="320" width="120" height="60" as="geometry" />
        </mxCell>
        <mxCell id="CTjjQVVto7asPMovYLZc-10" value="Log in" style="ellipse;whiteSpace=wrap;html=1;" vertex="1" parent="1">
          <mxGeometry x="150" y="250" width="120" height="60" as="geometry" />
        </mxCell>
      </root>
    </mxGraphModel>
  </diagram>
</mxfile>
